<?xml version="1.0" encoding="UTF-8" standalone="no"?>
<svg
   xmlns:dc="http://purl.org/dc/elements/1.1/"
   xmlns:cc="http://creativecommons.org/ns#"
   xmlns:rdf="http://www.w3.org/1999/02/22-rdf-syntax-ns#"
   xmlns:svg="http://www.w3.org/2000/svg"
   xmlns="http://www.w3.org/2000/svg"
   xmlns:sodipodi="http://sodipodi.sourceforge.net/DTD/sodipodi-0.dtd"
   xmlns:inkscape="http://www.inkscape.org/namespaces/inkscape"
   version="1.1"
   preserveAspectRatio="xMidYMid meet"
   viewBox="837 391 120 120"
   id="svg4198"
   inkscape:version="0.91 r13725"
   sodipodi:docname="logo.svg"
   width="120"
   height="120"
   inkscape:export-filename="/www/personal/tastymarks/static/images/logo/logo-96.png"
   inkscape:export-xdpi="72"
   inkscape:export-ydpi="72">
  <metadata
     id="metadata4220">
    <rdf:RDF>
      <cc:Work
         rdf:about="">
        <dc:format>image/svg+xml</dc:format>
        <dc:type
           rdf:resource="http://purl.org/dc/dcmitype/StillImage" />
        <dc:title></dc:title>
      </cc:Work>
    </rdf:RDF>
  </metadata>
  <defs
     id="defs4218" />
  <sodipodi:namedview
     pagecolor="#ffffff"
     bordercolor="#666666"
     borderopacity="1"
     objecttolerance="10"
     gridtolerance="10"
     guidetolerance="10"
     inkscape:pageopacity="0"
     inkscape:pageshadow="2"
     inkscape:window-width="1871"
     inkscape:window-height="1056"
     id="namedview4216"
     showgrid="false"
     inkscape:zoom="0.45585317"
     inkscape:cx="-553.01553"
     inkscape:cy="30.67395"
     inkscape:window-x="1969"
     inkscape:window-y="24"
     inkscape:window-maximized="1"
     inkscape:current-layer="svg4198"
     fit-margin-top="0"
     fit-margin-left="0"
     fit-margin-right="0"
     fit-margin-bottom="0" />
  <g
     id="g4201"
     transform="matrix(0.1439712,0,0,0.1439712,822.11338,379.25196)"
     class="logo__item__inner"
     inkscape:export-xdpi="232.5"
     inkscape:export-ydpi="232.5">
    <g
       id="g4203">
      <path
         style="fill:#f44336"
         inkscape:connector-curvature="0"
         id="path4205"
         data-part-id="logo__item--logo_0__0"
         d="m 884.2,384.8 c 2.9,-13.2 6.3,-26.6 10.4,-40 27.2,-27.6 42.3,-64 42.3,-102.9 0,-27.5 -7.7,-53.1 -20.9,-75.1 -24.2,-46 -72.4,-77.5 -127.9,-77.5 -35,0 -68.6,12.7 -94.9,35.7 -14.4,4.3 -31.9,8.8 -51.9,12.8 -70.5,14.3 -171.9,22.4 -279,-10.7 -27.6,-27.2 -64,-42.2 -102.9,-42.2 -31.2,0 -60.1,9.8 -83.9,26.5 -38,26.6 -63,70.6 -63,120.4 0,39.5 15.7,75.3 41.2,101.7 3.8,4 7.8,7.8 12.1,11.3 25.4,21.1 58,33.8 93.6,33.8 28,0 54.9,-7.8 78.3,-22.6 2.9,-1.8 5.7,-3.8 8.5,-5.8 0.9,-0.4 1.9,-0.8 2.8,-1.2 3.7,-1.7 7.4,-3.3 11,-4.8 104.3,-43.4 205.6,-32.5 270.3,-16.7 19.1,4.7 35.1,9.8 46.9,14.1 6.2,14.9 11.3,29.6 15.5,44.3 33.9,119.2 4.1,228.2 -12.6,274.4 -1.5,4.2 -2.9,7.9 -4.2,11.1 -2.2,5.7 -3.9,9.4 -4.7,11.1 -0.3,0.6 -0.5,1.1 -0.5,1.1 l -5.9,12.1 c -13.8,22.6 -21.1,48.1 -21.1,75 0,32.7 11.1,62.8 29.5,87.1 6.1,8.1 13,15.5 20.7,22.1 25.3,21.9 58.2,35.2 94.2,35.2 28.1,0 54.2,-8.2 76.4,-22.1 40.7,-25.6 68,-70.8 68,-122.3 0,-35 -12.7,-68.6 -35.7,-94.9 -17.5,-59 -39.6,-169 -12.6,-291 z M 793.9,263.3 c -8.5,0 -16.2,-2.7 -22.6,-7.3 -4.9,-2.9 -9.2,-6.8 -12.4,-11.5 -1.1,-2.7 -1.8,-5.6 -2.2,-8.6 -1.2,-3.8 -2,-7.7 -2,-11.9 0,-21.7 17.6,-39.2 39.2,-39.2 10.8,0 20.6,4.4 27.6,11.4 4.5,4.4 7.7,10 9.6,16.1 1.2,3.7 2,7.6 2,11.7 0.1,21.7 -17.5,39.3 -39.2,39.3 z m -2.3,554.8 c -8.2,0 -15.8,-2.5 -22.1,-6.8 -10.6,-7.1 -17.6,-19.2 -17.6,-33 0,-0.9 0.2,-1.8 0.3,-2.6 1.1,-16.3 11.9,-29.7 26.7,-34.8 4,-1.4 8.3,-2.3 12.7,-2.3 21.9,0 39.7,17.8 39.7,39.7 0,13.9 -7.2,26.1 -18.1,33.3 -6.1,4.1 -13.6,6.5 -21.6,6.5 z M 199.8,230.2 c 0,-0.9 0.2,-1.8 0.3,-2.6 1.1,-16.3 11.9,-29.8 26.7,-34.8 4,-1.4 8.3,-2.3 12.7,-2.3 21.9,0 39.7,17.8 39.7,39.7 0,13.9 -7.2,26.1 -18.1,33.2 -6.2,4.1 -13.7,6.5 -21.7,6.5 -8.2,0 -15.8,-2.5 -22.1,-6.8 -10.5,-7.1 -17.5,-19.2 -17.5,-32.9 z" />
      <path
         style="fill:#ce2c27"
         inkscape:connector-curvature="0"
         id="path4209"
         data-part-id="logo__item--logo_0__2"
         d="m 634.8,863.1 c 0.4,0.3 0.7,0.5 0.7,0.5 -1.2,-2.4 -2.4,-4.8 -3.5,-7.2 -1.5,-3.3 -3,-6.5 -4.3,-9.8 -26,-63.4 -11.8,-121.5 -0.9,-150.8 1.4,-3.8 2.8,-7.1 4,-9.9 0.2,-0.5 0.5,-1.1 0.7,-1.6 0.7,-1.3 1.3,-2.6 2.1,-3.9 0.6,-1.2 1.5,-3.2 2.5,-5.1 -118.5,33.4 -226.7,4 -273,-12.7 -44,-104.9 -32.9,-206.9 -17,-271.8 -3.4,1.9 -6.9,3.7 -10.4,5.3 -3.2,1.5 -6.3,2.9 -9.6,4.2 -21,8.4 -43.4,12.9 -66.5,12.9 -30,0 -58.2,-7.4 -83.1,-20.3 -3.4,-1.8 -6.7,-3.6 -9.9,-5.6 -3.4,-2 -6.8,-4.1 -10.1,-6.4 14.2,70.4 22.1,171.5 -10.8,278.3 -27.2,27.6 -42.3,64 -42.3,102.9 0,27.5 7.7,53.1 20.9,75.1 24.2,46 72.4,77.5 127.8,77.5 35,0 68.6,-12.7 94.9,-35.7 58.7,-17.4 168.3,-39.5 289.9,-12.9 -0.8,-0.7 -1.4,-1.8 -2.1,-3 z M 245.6,734.6 c 1.1,-0.1 2.1,-0.3 3.2,-0.3 21.7,0 39.2,17.6 39.2,39.2 0,1.3 -0.3,2.5 -0.4,3.8 -1.7,17.6 -14.9,31.8 -32,34.8 -3.6,1.1 -7.4,1.9 -11.4,1.9 -13.6,0 -25.6,-6.9 -32.7,-17.3 -1.7,-4.5 -2.8,-9.3 -2.8,-14.4 0,-2.8 0.3,-5.6 0.9,-8.3 0,-0.2 0,-0.3 0,-0.4 0,-20.7 15.8,-37.4 36,-39 z" />
    </g>
  </g>
</svg>
